<svg width="13" height="17" viewBox="0 0 13 17" fill="none" xmlns="http://www.w3.org/2000/svg">
<path d="M5.27991 16.4401C4.02658 16.4401 2.93991 16.2201 2.01991 15.7801C1.11325 15.3534 0.659912 14.6934 0.659912 13.8001C0.659912 13.2667 0.879912 12.7934 1.31991 12.3801C1.77325 11.9667 2.34658 11.6267 3.03991 11.3601C3.73325 11.0801 4.51991 10.8334 5.39991 10.6201C5.57325 10.5667 5.71325 10.5334 5.81991 10.5201L6.19991 10.9201C5.61325 11.1067 5.13325 11.3001 4.75991 11.5001C4.38658 11.7001 4.09991 11.9267 3.89991 12.1801C3.69991 12.4201 3.59991 12.6867 3.59991 12.9801C3.59991 13.3934 3.78658 13.6801 4.15991 13.8401C4.54658 14.0134 5.05325 14.1001 5.67991 14.1001C6.27991 14.1001 6.85325 14.0334 7.39991 13.9001C7.95991 13.7667 8.41991 13.5734 8.77991 13.3201C9.13991 13.0667 9.31991 12.7667 9.31991 12.4201C9.31991 12.1934 9.21991 12.0134 9.01991 11.8801C8.81991 11.7467 8.53991 11.6801 8.17991 11.6801C7.85991 11.6801 7.53325 11.7134 7.19991 11.7801C6.86658 11.8334 6.45325 11.9201 5.95991 12.0401C5.53325 12.1601 5.16658 12.2467 4.85991 12.3001C4.55325 12.3667 4.26658 12.4001 3.99991 12.4001C3.45325 12.4001 2.94658 12.3067 2.47991 12.1201C2.02658 11.9201 1.65991 11.6534 1.37991 11.3201C1.11325 10.9734 0.979912 10.5801 0.979912 10.1401C0.979912 9.52673 1.28658 8.99339 1.89991 8.54006C2.52658 8.07339 3.38658 7.66673 4.47991 7.32006L5.13991 7.90006C4.96658 7.95339 4.80658 8.00673 4.65991 8.06006C4.31325 8.18006 4.05325 8.31339 3.87991 8.46006C3.70658 8.60673 3.61991 8.80673 3.61991 9.06006C3.61991 9.27339 3.70658 9.43339 3.87991 9.54006C4.06658 9.64672 4.29991 9.70006 4.57991 9.70006C4.88658 9.70006 5.20658 9.68006 5.53991 9.64006C5.87325 9.58673 6.21991 9.52006 6.57991 9.44006C7.15325 9.33339 7.65325 9.25339 8.07991 9.20006C8.50658 9.14672 8.97325 9.12006 9.47991 9.12006C10.3732 9.12006 11.1132 9.33339 11.6999 9.76006C12.2999 10.1867 12.5999 10.8401 12.5999 11.7201C12.5999 12.7334 12.2199 13.5934 11.4599 14.3001C10.7132 15.0201 9.77325 15.5534 8.63991 15.9001C7.50658 16.2601 6.38658 16.4401 5.27991 16.4401ZM6.11991 8.74006C5.17325 8.74006 4.33325 8.58006 3.59991 8.26006C2.87991 7.92673 2.31325 7.46673 1.89991 6.88006C1.49991 6.29339 1.29991 5.63339 1.29991 4.90006C1.29991 4.18006 1.49991 3.53339 1.89991 2.96006C2.31325 2.37339 2.88658 1.92006 3.61991 1.60006C4.35325 1.26673 5.18658 1.10006 6.11991 1.10006C6.69325 1.10006 7.15325 1.14673 7.49991 1.24006C7.85991 1.33339 8.24658 1.46006 8.65991 1.62006C8.81991 1.68673 8.96658 1.74673 9.09991 1.80006C9.24658 1.84006 9.38658 1.86006 9.51991 1.86006C9.86658 1.86006 10.1132 1.74006 10.2599 1.50006C10.4066 1.26006 10.4799 0.946725 10.4799 0.560059L12.9999 1.36006C12.9866 1.86673 12.7799 2.26006 12.3799 2.54006C11.9932 2.80673 11.4799 2.94006 10.8399 2.94006C10.6799 2.92673 10.4999 2.91339 10.2999 2.90006C10.7266 3.48673 10.9399 4.15339 10.9399 4.90006C10.9399 5.63339 10.7332 6.29339 10.3199 6.88006C9.91991 7.46673 9.35325 7.92673 8.61991 8.26006C7.88658 8.58006 7.05325 8.74006 6.11991 8.74006ZM6.11991 6.78006C6.45325 6.78006 6.74658 6.70006 6.99991 6.54006C7.25325 6.38006 7.44658 6.16006 7.57991 5.88006C7.71325 5.58673 7.77991 5.26006 7.77991 4.90006C7.77991 4.36673 7.62658 3.92673 7.31991 3.58006C7.02658 3.23339 6.62658 3.06006 6.11991 3.06006C5.78658 3.06006 5.49325 3.14006 5.23991 3.30006C4.98658 3.46006 4.78658 3.68006 4.63991 3.96006C4.50658 4.24006 4.43991 4.55339 4.43991 4.90006C4.43991 5.44673 4.59325 5.90006 4.89991 6.26006C5.21991 6.60673 5.62658 6.78006 6.11991 6.78006Z" fill="#111111"/>
</svg>
