<svg width="350" height="467" viewBox="0 0 350 467" fill="none" xmlns="http://www.w3.org/2000/svg">
<path d="M131.037 466.5C95.4889 466.5 64.6677 460.044 38.5737 447.132C12.8579 434.612 0 415.244 0 389.029C0 373.378 6.23987 359.488 18.7196 347.359C31.5775 335.23 47.839 325.252 67.5041 317.427C87.1691 309.21 109.481 301.972 134.441 295.712C139.357 294.146 143.328 293.168 146.353 292.777L157.131 304.515C140.492 309.993 126.877 315.666 116.289 321.535C105.7 327.404 97.5689 334.056 91.8963 341.49C86.2237 348.533 83.3874 356.358 83.3874 364.966C83.3874 377.095 88.6818 385.508 99.2707 390.203C110.238 395.289 124.608 397.832 142.383 397.832C159.4 397.832 175.662 395.876 191.167 391.963C207.05 388.051 220.097 382.377 230.308 374.943C240.519 367.509 245.624 358.706 245.624 348.533C245.624 341.881 242.788 336.599 237.115 332.686C231.442 328.774 223.501 326.817 213.29 326.817C204.214 326.817 194.949 327.796 185.494 329.752C176.04 331.317 164.317 333.86 150.324 337.382C138.223 340.903 127.823 343.446 119.125 345.011C110.427 346.968 102.296 347.946 94.7326 347.946C79.2274 347.946 64.8568 345.207 51.6208 339.729C38.7628 333.86 28.363 326.035 20.4214 316.253C12.8579 306.08 9.07618 294.538 9.07618 281.626C9.07618 263.628 17.7742 247.977 35.1702 234.674C52.9444 220.979 77.3366 209.046 108.347 198.873L127.066 215.893C122.15 217.458 117.612 219.023 113.452 220.588C103.62 224.11 96.2453 228.022 91.329 232.326C86.4128 236.63 83.9546 242.499 83.9546 249.933C83.9546 256.193 86.4128 260.889 91.329 264.019C96.6235 267.149 103.241 268.714 111.183 268.714C119.881 268.714 128.957 268.127 138.412 266.953C147.866 265.388 157.699 263.432 167.909 261.084C184.171 257.954 198.352 255.607 210.454 254.042C222.555 252.476 235.791 251.694 250.162 251.694C275.5 251.694 296.488 257.954 313.128 270.475C330.146 282.995 338.655 302.167 338.655 327.991C338.655 357.727 327.877 382.964 306.321 403.702C285.143 424.83 258.482 440.481 226.337 450.654C194.192 461.218 162.426 466.5 131.037 466.5ZM154.862 240.543C128.012 240.543 104.187 235.848 83.3874 226.457C62.966 216.675 46.8936 203.177 35.1702 185.961C23.825 168.745 18.1524 149.377 18.1524 127.858C18.1524 106.729 23.825 87.7527 35.1702 70.9282C46.8936 53.7124 63.1551 40.4093 83.9546 31.0189C104.754 21.2372 128.39 16.3463 154.862 16.3463C171.124 16.3463 184.171 17.7158 194.003 20.4547C204.214 23.1935 215.181 26.9106 226.904 31.6058C231.442 33.5621 235.602 35.3229 239.384 36.8879C243.544 38.0617 247.515 38.6486 251.297 38.6486C261.129 38.6486 268.125 35.1272 272.285 28.0844C276.445 21.0415 278.525 11.8468 278.525 0.5L350 23.9761C349.622 38.8442 343.76 50.3866 332.415 58.6033C321.448 66.4286 306.888 70.3413 288.736 70.3413C284.198 69.95 279.092 69.5588 273.42 69.1675C285.521 86.3833 291.572 105.947 291.572 127.858C291.572 149.377 285.71 168.745 273.987 185.961C262.642 203.177 246.569 216.675 225.77 226.457C204.97 235.848 181.334 240.543 154.862 240.543ZM154.862 183.026C164.317 183.026 172.636 180.679 179.822 175.984C187.007 171.288 192.491 164.832 196.272 156.616C200.054 148.008 201.945 138.422 201.945 127.858C201.945 112.207 197.596 99.2951 188.898 89.1222C180.578 78.9492 169.233 73.8627 154.862 73.8627C145.408 73.8627 137.088 76.2103 129.903 80.9056C122.717 85.6008 117.045 92.0567 112.885 100.273C109.103 108.49 107.212 117.685 107.212 127.858C107.212 143.9 111.561 157.203 120.259 167.767C129.336 177.94 140.87 183.026 154.862 183.026Z" fill="#111111"/>
</svg>
